:SAMPLES-PER-SECOND 30
:FULLY-SPECIFIED
:DEGREES
993
root  -45.0026 39.2095 4.14955 157.826 81.3522 163.228
RightUpLeg  17.6364 -7.01957 -2.7317
RightLeg  12.3249 21.955 1.87126
RightFoot  -18.8245 -0.573463 -6.82212
RightToes  6.35927e-011 1.30204e-014 -6.03759e-014
Spine  2.51465 -0.802173 4.3935
Spine1  16.0967 0.222009 -2.65089
HEad  -15.9674 -3.74083 0.594768
LeftShoulder1  -0.17179 4.02115 -27.0128
LeftArm  -15.6807 1.23778 -32.3787
LeftForeArm  64.4625 -78.8656 -87.822
LeftHand  -0.061344 1.38068 1.58394
RightShoulder  -0.392315 -4.74656 24.9879
RightArm  -14.8886 -4.20878 43.1277
RightForeArm  111.347 71.6562 142.258
RightHand  -0.0758483 -3.59337 -3.80758
LeftUpLeg  -15.4405 3.22355 -0.785103
LeftLeg  4.76586 3.04523 -0.788848
LeftFoot  1.05885 0.620782 -5.88799
LeftToes  -7.16024e-010 4.79583e-011 -5.98286e-011
994
root  -43.9299 38.9882 3.73395 154.472 82.3963 160.252
RightUpLeg  19.3338 -5.62866 -3.31335
RightLeg  13.3911 21.9152 2.31666
RightFoot  -19.9122 -0.588534 -6.05287
RightToes  6.35927e-011 1.30204e-014 -6.03759e-014
Spine  2.07437 -0.459263 3.69646
Spine1  16.2154 0.62058 -2.81625
HEad  -15.2636 -3.69712 0.716988
LeftShoulder1  -0.233709 4.20897 -26.9325
LeftArm  -15.1474 1.12393 -32.0736
LeftForeArm  68.3919 -78.8467 -92.2176
LeftHand  -0.0724713 1.28121 1.87922
RightShoulder  -0.396048 -4.74194 25.0098
RightArm  -15.205 -4.74704 42.4709
RightForeArm  111.423 71.329 142.98
RightHand  -0.0731594 -3.48638 -3.44353
LeftUpLeg  -15.4132 3.12551 -1.85056
LeftLeg  7.91682 1.31829 -0.415992
LeftFoot  5.57311 0.175062 -1.46005
LeftToes  -7.16024e-010 4.79583e-011 -5.98286e-011
995
root  -42.8182 38.8235 3.33717 147.218 82.7795 153.411
RightUpLeg  20.8611 -2.50456 -3.73829
RightLeg  14.954 20.0029 3.02828
RightFoot  -20.3701 -0.508996 -4.70782
RightToes  6.35927e-011 1.30204e-014 -6.03759e-014
Spine  1.94386 -0.175452 1.73533
Spine1  16.0327 0.71495 -2.307
HEad  -14.7295 -3.4192 0.595999
LeftShoulder1  -0.303886 4.41641 -27.0937
LeftArm  -14.6346 1.36031 -31.5574
LeftForeArm  72.462 -78.7669 -96.6807
LeftHand  -0.0821581 1.17709 2.12028
RightShoulder  -0.41303 -4.78971 25.1847
RightArm  -15.2415 -5.37434 41.7926
RightForeArm  111.313 71.1528 143.338
RightHand  -0.0692711 -3.52014 -3.249
LeftUpLeg  -15.5507 2.95983 -3.29086
LeftLeg  11.8281 0.572524 0.00311909
LeftFoot  8.71206 -0.517043 2.6926
LeftToes  -7.16024e-010 4.79583e-011 -5.98286e-011
996
root  -41.7258 38.727 2.96558 140.409 82.605 146.906
RightUpLeg  21.3918 1.84327 -3.78321
RightLeg  18.0868 16.4634 4.74063
RightFoot  -20.1478 -0.32728 -2.50878
RightToes  6.35927e-011 1.30204e-014 -6.03759e-014
Spine  1.98107 0.0428831 -0.372585
Spine1  15.7242 0.696406 -1.74521
HEad  -14.4387 -3.28922 0.342403
LeftShoulder1  -0.334139 4.49996 -27.3477
LeftArm  -14.1323 1.51257 -31.2298
LeftForeArm  74.3166 -78.717 -98.5661
LeftHand  -0.080946 1.25901 2.11437
RightShoulder  -0.442423 -4.86754 25.5499
RightArm  -15.2836 -6.25595 41.3398
RightForeArm  111.155 71.2543 143.103
RightHand  -0.0665491 -3.53534 -3.08231
LeftUpLeg  -15.6059 3.16151 -4.63041
LeftLeg  15.9494 0.682644 0.445775
LeftFoot  7.65413 -0.80625 4.53995
LeftToes  -7.16024e-010 4.79583e-011 -5.98286e-011
997
root  -40.7455 38.7361 2.59925 133.707 82.7293 140.214
RightUpLeg  19.7195 3.03699 -5.30614
RightLeg  24.2026 16.1393 7.73968
RightFoot  -18.3213 -0.0476416 1.3711
RightToes  6.35927e-011 1.30204e-014 -6.03759e-014
Spine  2.19408 0.369936 -1.5057
Spine1  15.382 0.984214 -2.10757
HEad  -14.5223 -3.3171 0.191966
LeftShoulder1  -0.328214 4.47722 -27.5248
LeftArm  -13.7572 1.59277 -31.1606
LeftForeArm  74.8831 -78.719 -98.8666
LeftHand  -0.0749859 1.3889 1.9898
RightShoulder  -0.448473 -4.87401 25.8451
RightArm  -15.4115 -7.11064 41.1926
RightForeArm  110.901 71.5589 142.413
RightHand  -0.0662769 -3.27036 -2.74886
LeftUpLeg  -15.0611 4.19218 -5.53916
LeftLeg  18.5449 0.632906 0.573451
LeftFoot  4.37249 -0.670064 4.65129
LeftToes  -7.16024e-010 4.79583e-011 -5.98286e-011
998
root  -39.9059 38.8228 2.2323 122.275 83.2853 128.517
RightUpLeg  15.4005 2.1022 -8.03717
RightLeg  33.5237 17.2894 11.7604
RightFoot  -13.4716 0.0177603 7.13294
RightToes  6.35927e-011 1.30204e-014 -6.03759e-014
Spine  2.65514 0.838908 -2.13777
Spine1  15.042 1.48418 -3.2089
HEad  -15.1567 -3.00919 0.043217
LeftShoulder1  -0.323942 4.46469 -27.5211
LeftArm  -13.7625 2.06554 -31.084
LeftForeArm  76.8667 -78.6615 -100.723
LeftHand  -0.0770608 1.28592 2.01255
RightShoulder  -0.423383 -4.79743 25.8035
RightArm  -15.2712 -7.19292 41.1945
RightForeArm  110.147 71.909 141.526
RightHand  -0.066356 -2.97606 -2.48267
LeftUpLeg  -14.0199 5.99883 -6.27364
LeftLeg  19.2253 0.257429 0.361528
LeftFoot  1.96377 -0.546116 4.58201
LeftToes  -7.16024e-010 4.79583e-011 -5.98286e-011
999
root  -39.1419 38.8931 1.8833 108.117 83.5691 114.107
RightUpLeg  9.72439 1.81944 -10.2909
RightLeg  43.6127 15.5955 15.062
RightFoot  -6.34872 -0.595102 12.7334
RightToes  6.35927e-011 1.30204e-014 -6.03759e-014
Spine  3.29122 1.18179 -3.1467
Spine1  14.7363 1.69219 -3.89792
HEad  -16.3105 -2.21026 -0.380705
LeftShoulder1  -0.323149 4.46886 -27.2853
LeftArm  -14.2033 2.96135 -30.9308
LeftForeArm  80.5801 -78.4804 -104.658
LeftHand  -0.0875929 1.01881 2.20971
RightShoulder  -0.396693 -4.72545 25.5094
RightArm  -14.7346 -6.23335 41.1375
RightForeArm  108.956 72.1761 140.737
RightHand  -0.0672277 -2.9864 -2.47965
LeftUpLeg  -12.9494 7.34336 -6.88421
LeftLeg  19.4508 0.565133 0.135874
LeftFoot  0.565439 -0.49825 4.74123
LeftToes  -7.16024e-010 4.79583e-011 -5.98286e-011
